<svg width="53" height="51" viewBox="0 0 53 51" fill="none" xmlns="http://www.w3.org/2000/svg">
<path d="M49.5384 41.2911H46.2359V19.0575C46.2359 18.2151 45.8879 17.4073 45.2686 16.8116C44.6492 16.2159 43.8092 15.8813 42.9333 15.8813H29.7231V6.35261C29.7235 5.77744 29.5615 5.21297 29.2544 4.71943C28.9472 4.2259 28.5065 3.82183 27.9793 3.55036C27.4521 3.27889 26.8581 3.1502 26.2607 3.17804C25.6634 3.20587 25.0851 3.38918 24.5876 3.7084L8.07484 14.2932C7.62185 14.5838 7.25063 14.9777 6.99422 15.4398C6.73781 15.9018 6.60417 16.4176 6.6052 16.9414V41.2911H3.30265C2.8647 41.2911 2.44469 41.4585 2.13502 41.7563C1.82534 42.0541 1.65137 42.4581 1.65137 42.8792C1.65137 43.3004 1.82534 43.7044 2.13502 44.0022C2.44469 44.3 2.8647 44.4674 3.30265 44.4674H49.5384C49.9764 44.4674 50.3964 44.3 50.7061 44.0022C51.0157 43.7044 51.1897 43.3004 51.1897 42.8792C51.1897 42.4581 51.0157 42.0541 50.7061 41.7563C50.3964 41.4585 49.9764 41.2911 49.5384 41.2911ZM42.9333 19.0575V41.2911H29.7231V19.0575H42.9333ZM9.90776 16.9414L26.4205 6.35261V41.2911H9.90776V16.9414ZM23.118 22.2338V25.41C23.118 25.8312 22.944 26.2351 22.6343 26.533C22.3247 26.8308 21.9047 26.9981 21.4667 26.9981C21.0288 26.9981 20.6088 26.8308 20.2991 26.533C19.9894 26.2351 19.8154 25.8312 19.8154 25.41V22.2338C19.8154 21.8126 19.9894 21.4086 20.2991 21.1108C20.6088 20.813 21.0288 20.6456 21.4667 20.6456C21.9047 20.6456 22.3247 20.813 22.6343 21.1108C22.944 21.4086 23.118 21.8126 23.118 22.2338ZM16.5129 22.2338V25.41C16.5129 25.8312 16.3389 26.2351 16.0292 26.533C15.7195 26.8308 15.2995 26.9981 14.8616 26.9981C14.4236 26.9981 14.0036 26.8308 13.694 26.533C13.3843 26.2351 13.2103 25.8312 13.2103 25.41V22.2338C13.2103 21.8126 13.3843 21.4086 13.694 21.1108C14.0036 20.813 14.4236 20.6456 14.8616 20.6456C15.2995 20.6456 15.7195 20.813 16.0292 21.1108C16.3389 21.4086 16.5129 21.8126 16.5129 22.2338ZM16.5129 33.3506V36.5268C16.5129 36.948 16.3389 37.3519 16.0292 37.6498C15.7195 37.9476 15.2995 38.1149 14.8616 38.1149C14.4236 38.1149 14.0036 37.9476 13.694 37.6498C13.3843 37.3519 13.2103 36.948 13.2103 36.5268V33.3506C13.2103 32.9294 13.3843 32.5254 13.694 32.2276C14.0036 31.9298 14.4236 31.7624 14.8616 31.7624C15.2995 31.7624 15.7195 31.9298 16.0292 32.2276C16.3389 32.5254 16.5129 32.9294 16.5129 33.3506ZM23.118 33.3506V36.5268C23.118 36.948 22.944 37.3519 22.6343 37.6498C22.3247 37.9476 21.9047 38.1149 21.4667 38.1149C21.0288 38.1149 20.6088 37.9476 20.2991 37.6498C19.9894 37.3519 19.8154 36.948 19.8154 36.5268V33.3506C19.8154 32.9294 19.9894 32.5254 20.2991 32.2276C20.6088 31.9298 21.0288 31.7624 21.4667 31.7624C21.9047 31.7624 22.3247 31.9298 22.6343 32.2276C22.944 32.5254 23.118 32.9294 23.118 33.3506Z" fill="#00111A"/>
</svg>
